<svg width="933" height="933" viewBox="0 0 933 933" fill="none" xmlns="http://www.w3.org/2000/svg">
<g clip-path="url(#clip0_1_71)">
<path fill-rule="evenodd" clip-rule="evenodd" d="M106.629 110.203L106.629 226.586L0 226.586V230.16L106.629 230.16V346.543H0V350.118H106.629V466.5H0V470.075H106.629L106.629 586.457H0V590.032H106.629V706.414H0V709.989H106.629L106.629 933H110.203L110.203 709.989H226.586L226.586 933H230.16L230.16 709.989H346.543L346.543 933H350.118L350.118 709.989H466.5L466.5 933H470.075L470.075 709.989H586.457L586.457 933H590.032L590.032 709.989H706.414L706.414 933H709.989L709.989 709.989H826.371L826.371 933H829.946L829.946 709.989H933V706.414H829.946V590.032H933V586.457H829.946V470.075H933V466.5H829.946V350.118H933V346.543H829.946V230.16L933 230.16V226.586L829.946 226.586V110.203L933 110.203V106.629L829.946 106.629V0H826.371V106.629L709.989 106.629V0H706.414V106.629L590.032 106.629V0H586.457V106.629L470.075 106.629V0H466.5V106.629L350.118 106.629V0H346.543V106.629L230.16 106.629V0H226.586V106.629L110.203 106.629L110.203 0H106.629L106.629 106.629L0 106.629V110.203L106.629 110.203ZM226.586 706.414H110.203V590.032H226.586V706.414ZM346.543 706.414H230.16V590.032H346.543V706.414ZM466.5 706.414H350.118V590.032H466.5V706.414ZM586.457 706.414H470.075V590.032H586.457V706.414ZM706.414 706.414H590.032V590.032H706.414V706.414ZM826.371 706.414H709.989V590.032H826.371V706.414ZM826.371 586.457V470.075H709.989V586.457H826.371ZM706.414 586.457V470.075L590.032 470.075V586.457H706.414ZM586.457 586.457V470.075H470.075V586.457H586.457ZM466.5 586.457V470.075H350.118V586.457H466.5ZM346.543 586.457V470.075L230.16 470.075L230.16 586.457H346.543ZM226.586 586.457L226.586 470.075H110.203L110.203 586.457H226.586ZM226.586 466.5L110.203 466.5L110.203 350.118H226.586V466.5ZM346.543 466.5H230.16V350.118L346.543 350.118V466.5ZM466.5 466.5H350.118V350.118H466.5V466.5ZM586.457 466.5H470.075V350.118H586.457V466.5ZM706.414 466.5H590.032V350.118L706.414 350.118V466.5ZM826.371 466.5L709.989 466.5V350.118H826.371V466.5ZM826.371 346.543V230.16H709.989V346.543L826.371 346.543ZM706.414 346.543V230.16L590.032 230.16V346.543H706.414ZM586.457 346.543V230.16H470.075V346.543H586.457ZM466.5 346.543V230.16H350.118V346.543H466.5ZM346.543 346.543V230.16L230.16 230.16V346.543H346.543ZM226.586 346.543V230.16H110.203L110.203 346.543L226.586 346.543ZM226.586 226.586H110.203L110.203 110.203L226.586 110.203V226.586ZM346.543 226.586L230.16 226.586V110.203L346.543 110.203V226.586ZM466.5 226.586H350.118V110.203L466.5 110.203V226.586ZM586.457 226.586H470.075V110.203L586.457 110.203V226.586ZM706.414 226.586L590.032 226.586V110.203L706.414 110.203V226.586ZM826.371 226.586H709.989V110.203L826.371 110.203V226.586Z" fill="url(#paint0_radial_1_71)"/>
<path fill-rule="evenodd" clip-rule="evenodd" d="M264.622 213.72C280.408 202.547 300.355 199.8 319.248 200.227C466.782 200.387 614.328 200.4 761.862 200.16C764.795 200.173 767.688 200.267 770.648 200.427C761.968 206.093 752.288 210.36 742.035 212.133C733.995 213.834 725.788 213.811 717.606 213.787C715.462 213.781 713.319 213.775 711.182 213.8C664.482 213.796 617.783 213.813 571.083 213.829C468.929 213.866 366.776 213.903 264.622 213.72ZM119.688 389.627C136.555 383.587 154.528 380.6 172.462 381.133C187.222 380.8 202.462 383.2 215.435 390.56C226.062 397.053 236.142 405.467 241.862 416.747C247.355 427.027 246.515 439.773 241.608 450.107C235.235 464.373 223.568 475.187 212.155 485.44C224.115 488.08 236.782 492.093 244.742 502.027C253.222 511.813 254.462 526.707 248.462 538.053C241.515 551.507 228.915 560.947 216.168 568.533C197.088 579.04 175.688 586.387 153.768 586.88C146.335 586.925 141.125 582.183 135.932 577.458C133.338 575.098 130.748 572.741 127.888 570.987C127.751 571.326 127.612 571.67 127.473 572.018C125.369 577.259 122.95 583.286 117.048 584.987C110.822 586.253 103.182 586.427 98.3016 581.68C95.5549 579.093 95.4349 574.973 96.3816 571.56C97.5503 566.824 99.2228 562.244 100.895 557.664L100.896 557.663C101.761 555.294 102.626 552.924 103.422 550.533C107.734 537.929 112.072 525.337 116.41 512.744C122.347 495.511 128.285 478.278 134.155 461.013C135.567 457.06 136.927 453.087 138.287 449.114C141.202 440.595 144.118 432.075 147.555 423.747C149.448 419.253 152.528 414.28 157.822 413.587C163.032 412.609 167.646 415.441 171.957 418.086C172.643 418.508 173.322 418.924 173.995 419.32C177.275 421.28 180.955 424.947 179.088 429.093C176.938 435.177 174.744 441.249 172.55 447.322L172.549 447.324L172.548 447.326L172.548 447.327L172.547 447.329L172.546 447.331L172.546 447.332C168.59 458.279 164.632 469.232 160.928 480.267C179.008 469.653 195.595 455.947 208.115 439.027C213.702 430.6 219.795 421 218.742 410.493C212.264 406.86 204.778 406.094 197.442 405.344L197.442 405.344H197.442C195.733 405.17 194.033 404.996 192.355 404.787C160.475 402.773 127.782 407.293 98.5149 420.48C87.5949 425.667 77.1282 432.333 68.9949 441.36C60.8082 450.107 57.8082 462.467 58.7416 474.2C58.6544 474.883 58.7037 475.67 58.754 476.474C58.8885 478.622 59.0304 480.888 56.5949 481.587C49.2749 477.627 45.2882 468.987 45.3282 460.88C45.8216 447.253 52.3282 434.44 61.6349 424.693C77.3282 407.973 98.2349 397.067 119.688 389.627ZM180.681 508.826L180.68 508.826L180.679 508.826C177.086 509.869 173.493 510.913 169.862 511.773C164.003 513.136 158.985 509.703 154.323 506.513C153.51 505.957 152.709 505.408 151.915 504.893C147.145 517.351 142.719 529.952 138.298 542.542L138.297 542.543C137.504 544.803 136.71 547.062 135.915 549.32C135.728 549.889 135.534 550.457 135.339 551.028C134.39 553.801 133.43 556.607 133.342 559.56C135.715 561.627 138.742 562.973 141.915 562.987C153.675 563.493 164.928 559.133 175.462 554.373C190.662 547.093 205.488 537.88 216.048 524.507C220.235 518.88 224.275 512.573 224.382 505.32C217.539 502.356 210.065 503.181 202.844 503.977L202.838 503.978C202.069 504.063 201.303 504.147 200.542 504.227C193.761 505.027 187.22 506.927 180.681 508.826ZM521.128 400.227C516.248 393.267 506.568 391.413 499.235 395.533C492.68 399.227 489.771 406.52 487.091 413.237C486.849 413.844 486.609 414.446 486.368 415.04C485.702 416.83 485.034 418.62 484.366 420.41L484.365 420.412C479.302 433.978 474.238 447.549 469.715 461.307C468.863 460.349 468.107 459.186 467.341 458.009C465.325 454.909 463.244 451.71 459.195 451.893C447.808 451.467 437.115 456.76 427.915 463C409.195 476.16 396.528 496.52 389.368 517.973C388.679 519.746 388.293 521.667 387.907 523.59C387.18 527.207 386.453 530.829 383.702 533.467C376.208 541.547 368.275 549.333 359.222 555.68C358.614 556.092 358.006 556.513 357.394 556.937L357.387 556.942C352.714 560.179 347.871 563.535 341.955 563.547C343.906 552.805 347.769 542.579 351.622 532.382L351.623 532.378C352.877 529.059 354.13 525.743 355.315 522.413C358.046 515.436 360.664 508.418 363.282 501.402L363.283 501.4L363.283 501.399C367.043 491.322 370.801 481.25 374.888 471.307C377.235 466.307 374.155 461 371.408 456.88C368.875 453.52 365.328 449.333 360.595 450.507C356.096 452.024 353.551 456.453 351.305 460.362L351.115 460.693C346.622 469.547 343.259 478.884 339.899 488.209C338.832 491.173 337.764 494.135 336.662 497.08C335.852 499.173 335.149 501.328 334.444 503.487C332.513 509.401 330.573 515.344 326.422 520.12L325.847 520.832C314.608 534.761 303.235 548.857 289.142 560.027C286.755 562.08 283.755 563.107 280.688 563.573C280.533 556.853 282.608 550.455 284.653 544.147C284.889 543.422 285.124 542.697 285.355 541.973C290.773 525.978 296.902 510.25 303.031 494.519L303.033 494.515L303.034 494.513C306.693 485.122 310.353 475.73 313.862 466.28L313.909 466.137C315.301 461.909 317.015 456.702 314.115 452.733C312.248 449.84 308.488 450.893 305.795 451.653C298.675 453.8 290.755 456.547 286.968 463.507C275.595 483.12 267.208 504.347 260.475 525.96C260.21 526.983 259.937 528.01 259.663 529.041C257.388 537.604 255.044 546.427 256.555 555.293C258.368 566.027 265.075 576.413 275.208 580.92C280.835 583.333 287.115 580.84 291.728 577.4C302.995 569.013 312.582 558.573 321.222 547.547C321.124 549.072 320.973 550.603 320.822 552.137L320.822 552.138C320.356 556.868 319.888 561.625 320.955 566.307C322.182 573.587 327.022 580.747 334.475 582.667C342.902 584.693 351.782 582.4 359.222 578.28C369.675 572.147 379.222 563.693 385.035 552.933C385.132 553.277 385.229 553.623 385.326 553.971C385.404 554.25 385.482 554.53 385.56 554.811C388.188 564.254 391.134 574.837 400.195 579.973C405.928 583.573 413.035 580.773 417.875 576.973C427.635 569.227 435.808 559.573 442.542 549.12C442.404 550.04 442.259 550.966 442.113 551.896C440.957 559.258 439.758 566.898 441.995 574.107C445.208 581.973 455.035 584.227 462.595 582.04C478.995 577.52 492.222 566 504.182 554.4C508.942 561.147 515.942 567.547 524.648 567.653C532.905 566.567 539.025 560.977 544.974 555.543C546.47 554.176 547.956 552.819 549.462 551.547C547.515 556.573 545.422 561.56 543.328 566.533C532.982 569.68 522.902 573.827 513.502 579.213C503.608 584.8 493.275 591.053 487.542 601.24C482.168 610.2 484.768 621.653 490.062 630.04C493.968 636.533 500.302 643 508.488 642.6C516.262 642.133 523.755 638.773 529.915 634.12C531.516 631.825 532.611 629.169 533.705 626.514L533.706 626.514L533.706 626.513C535.492 622.181 537.277 617.849 541.262 615.08C543.01 613.759 545.118 613.109 547.217 612.461C549.695 611.696 552.16 610.935 554.008 609.08C561.212 599.372 565.939 588.225 570.636 577.151L570.636 577.15C571.867 574.246 573.097 571.347 574.368 568.48C577.454 567.46 580.64 566.554 583.845 565.643L583.846 565.642L583.847 565.642C595.182 562.419 606.766 559.124 615.102 550.467C619.475 562.16 627.688 572.453 638.382 578.947C649.582 585.56 663.502 583.44 675.128 579.147C692.702 572.507 708.942 561.747 721.368 547.6C721.302 556.573 721.942 566.293 727.408 573.813C732.262 580.493 741.328 585.2 749.502 581.933C765.022 576.28 776.702 563.92 787.542 551.96C792.542 546.213 797.462 540.387 801.875 534.173C805.542 529.773 799.275 524.587 795.142 524.4C791.955 526.666 789.302 529.526 786.651 532.384C785.153 533.999 783.655 535.613 782.062 537.12C781.282 537.877 780.502 538.637 779.722 539.398C771.884 547.044 763.95 554.783 754.395 560.24C752.13 561.737 749.391 561.798 746.77 561.856L746.634 561.859C746.523 561.861 746.412 561.864 746.302 561.867C745.995 557.493 746.315 553.093 747.475 548.867C752.334 529.465 759.626 510.807 766.896 492.206C767.824 489.83 768.752 487.455 769.675 485.08C769.858 484.716 770.026 484.318 770.197 483.911C770.809 482.457 771.464 480.899 773.048 480.44C778.306 479.071 783.659 478.122 789.01 477.173C795.331 476.052 801.65 474.932 807.808 473.12C811.448 472.147 814.515 468.88 813.288 464.893C811.342 460.093 807.488 455.493 802.395 453.973C798.029 453.142 793.595 453.25 789.164 453.357C787.127 453.406 785.09 453.455 783.062 453.413C784.578 449.006 786.613 444.813 788.646 440.623L788.646 440.621C791.189 435.38 793.729 430.145 795.248 424.507C796.459 421.014 793.685 418.107 791.459 415.772L791.455 415.769L791.379 415.688C791.303 415.609 791.229 415.531 791.155 415.453C786.862 411.453 781.368 407.12 775.115 408.32C768.995 409.707 765.582 415.64 763.248 420.973C758.488 432.413 754.315 444.093 750.342 455.84C747.756 456.562 745.059 457.097 742.349 457.634L742.349 457.635C735.851 458.923 729.279 460.227 723.982 464.16C721.488 472.88 727.355 485.2 737.595 484.933C736.253 490.87 734.208 496.597 732.163 502.325L732.163 502.326C729.799 508.948 727.435 515.571 726.155 522.52C724.927 523.405 723.699 524.293 722.472 525.182L722.465 525.187C712.437 532.445 702.388 539.718 691.462 545.573C678.075 553.133 663.742 559.747 648.368 561.733L648.171 561.749C644.035 562.068 638.661 562.483 636.155 558.48C634.835 552.547 635.288 546.28 636.608 540.373C652.315 538.027 666.582 530.107 679.475 521.187C692.155 511.84 704.395 500.16 709.448 484.84C712.022 477.853 708.968 470.373 704.648 464.813C699.302 457.733 691.062 451.947 681.848 452.387C668.422 452.907 655.622 458.773 645.182 467C628.328 479.987 615.702 499.307 613.182 520.68C613.033 521.443 612.938 522.248 612.842 523.063C612.526 525.752 612.198 528.542 609.875 530.24C600.488 538.76 590.715 547.08 579.488 553.093C584.821 536.36 590.857 519.868 596.893 503.377L596.895 503.372L596.899 503.362C599.614 495.942 602.33 488.522 604.982 481.08C605.548 479.303 606.256 477.558 606.966 475.812C608.412 472.251 609.86 468.687 610.102 464.84C606.542 456.573 595.768 455.267 588.008 457.373C585.493 458.308 583.593 456.977 581.658 455.621C580.116 454.54 578.551 453.443 576.635 453.467C556.808 451.2 538.222 462.04 525.088 476.04C514.902 486.68 506.062 498.947 500.702 512.733C497.635 520.48 497.395 528.893 497.688 537.107C495.506 539.016 493.347 540.96 491.185 542.906C482.873 550.389 474.536 557.893 464.822 563.533C465.274 557.838 466.955 552.387 468.63 546.957C469.128 545.345 469.624 543.735 470.088 542.12C473.785 529.767 478.216 517.661 482.647 505.554L482.651 505.543C483.46 503.331 484.27 501.12 485.075 498.907C487.092 493.599 489.1 488.288 491.107 482.977C498.944 462.243 506.78 441.51 515.208 421.013C515.773 419.508 516.4 418.01 517.028 416.508C519.214 411.28 521.418 406.007 521.128 400.227ZM519.368 547.093C522.408 529.787 533.315 515.2 544.115 501.84C553.195 491.413 563.462 481.333 576.288 475.68C574.808 481.165 572.816 486.474 570.825 491.781C569.767 494.602 568.709 497.421 567.728 500.267C567.451 501.02 567.182 501.785 566.913 502.553L566.913 502.553C565.425 506.801 563.9 511.15 560.502 514.267C558.768 515.984 557.05 517.72 555.333 519.456C549.984 524.862 544.635 530.269 538.782 535.133C538.543 535.333 538.305 535.532 538.065 535.733L538.063 535.735C532.447 540.435 526.631 545.303 519.368 547.093ZM660.124 492.694C660.589 492.173 661.053 491.653 661.515 491.133C667.182 485.307 673.008 479.387 680.302 475.6C679.902 482.093 675.555 487.2 671.488 491.88C663.888 499.92 655.368 507.333 645.688 512.787C649.02 505.139 654.62 498.863 660.124 492.694ZM410.062 538.947C416.995 519.653 428.328 501.64 444.182 488.467C449.555 484.013 455.502 480.187 462.088 477.787C460.795 484.463 458.481 490.844 456.165 497.228L456.165 497.228L456.165 497.229C454.804 500.98 453.443 504.732 452.288 508.547C450.936 513.411 447.995 517.466 445.066 521.503C444.126 522.799 443.186 524.094 442.302 525.413C434.982 536.013 426.448 545.893 416.355 553.96C413.931 556.224 410.602 556.466 407.484 556.693L407.475 556.693C406.026 550.766 408.041 544.865 409.94 539.301L410.062 538.947ZM515.104 606.195C515.546 605.711 515.986 605.229 516.422 604.747C521.142 599.507 526.022 594.347 531.555 589.933C527.195 599.053 520.195 606.467 513.288 613.68C511.088 616 508.568 617.96 505.888 619.667C507.627 614.379 511.409 610.24 515.104 606.195ZM75.3549 623.027C88.1416 618.413 101.488 613.787 115.288 614.533C120.697 614.573 124.632 618.877 128.022 622.585L128.182 622.76C131.568 626.813 134.715 632.587 132.195 637.867C129.195 644.573 123.888 650.147 117.742 654.093C112.888 657.253 106.115 656.627 101.782 652.853C98.4196 650.338 97.051 646.298 95.7504 642.459C95.5965 642.004 95.4435 641.553 95.2882 641.107C85.1346 643.71 76.1568 649.297 67.3345 654.788C66.5759 655.26 65.8185 655.731 65.0616 656.2C48.7016 667.48 33.4882 681.893 25.9416 700.667C20.5416 714.44 16.4349 729.573 19.1949 744.427C19.2802 747.559 22.5636 748.252 25.1435 748.796L25.1531 748.798C25.3919 748.848 25.6247 748.897 25.8482 748.947C47.9816 752.373 70.6082 747.773 91.0082 739.053C95.4796 737.343 99.7484 735.206 104.016 733.069C107.867 731.141 111.718 729.213 115.715 727.6C120.782 704.613 136.608 684.88 156.928 673.36C169.368 666.373 183.315 660.187 197.915 661.547C198.574 662.354 199.233 663.172 199.895 663.993C200.305 664.501 200.716 665.011 201.128 665.52C207.688 663.84 215.795 663.093 220.915 668.453C223.435 670.4 222.342 673.68 221.408 676.173C213.768 695.613 206.515 715.227 199.288 734.827C198.837 736.199 198.369 737.572 197.901 738.947L197.9 738.951C195.323 746.515 192.718 754.161 192.662 762.227C196.248 761.4 199.702 760 202.715 757.853C212.475 751.307 221.475 743.707 229.995 735.64C231.622 734.08 233.288 732.427 233.888 730.187C241.232 705.13 250.058 680.55 258.88 655.98L258.88 655.979L258.881 655.976C260.903 650.345 262.925 644.715 264.928 639.08C265.409 637.841 265.87 636.584 266.331 635.324L266.332 635.323C268.2 630.225 270.089 625.071 273.435 620.773C277.848 615.28 285.742 613.587 292.368 615.213C296.888 616.533 298.688 621.973 296.742 626.067L296.201 627.446C283.461 659.959 270.717 692.481 259.582 725.587C258.893 727.838 258.17 730.089 257.446 732.344L257.446 732.345C254.231 742.359 250.992 752.446 250.622 763.013C257 762.591 262.203 758.777 267.21 755.107C267.896 754.603 268.58 754.102 269.262 753.613C276.395 747.973 283.155 741.76 289.315 735.067C289.892 732.96 290.235 730.798 290.578 728.637C291.012 725.9 291.446 723.163 292.355 720.533C300.595 694.84 321.342 674.187 346.142 664.107C346.525 663.963 346.91 663.819 347.295 663.674C353.872 661.204 360.784 658.609 367.875 659.213C375.382 662.667 381.462 669.32 384.435 677.027C386.435 682.76 382.248 688.16 378.502 692.08C374.902 696.013 369.008 699.413 363.782 696.453C359.329 694.527 358.279 689.68 357.351 685.4C357.29 685.117 357.229 684.837 357.168 684.56C351.873 686.071 347.759 689.762 343.737 693.37C343.04 693.995 342.346 694.618 341.648 695.227C327.688 707.76 318.142 724.68 312.928 742.587C310.995 748.813 310.462 755.36 310.768 761.853C327.643 762.362 342.581 753.472 356.711 745.061C358.134 744.215 359.548 743.373 360.955 742.547C363.423 741.234 365.721 739.505 368.02 737.775C372.587 734.339 377.154 730.902 383.062 730.733C388.515 710.507 397.008 691.147 407.115 672.827C411.182 664.92 420.328 662.053 428.462 660.467C430.795 659.667 432.488 662.013 433.088 663.96C434.035 668.339 432.461 672.671 430.978 676.751L430.971 676.771C430.89 676.995 430.809 677.218 430.728 677.44C428.447 683.301 426.131 689.148 423.814 694.995L423.814 694.995C417.235 711.602 410.657 728.208 404.888 745.12C402.902 750.88 401.222 756.84 401.235 762.987C404.222 762.2 407.315 761.373 409.702 759.32C422.795 748.867 433.542 735.867 444.075 722.933C448.06 718.286 450.004 712.538 451.934 706.831L451.935 706.828C452.491 705.184 453.046 703.543 453.648 701.933C454.631 699.402 455.588 696.856 456.544 694.308C460.013 685.073 463.489 675.819 468.275 667.187C470.635 663.107 474.688 657.96 480.075 660.16C484.328 662.587 487.088 667.093 488.835 671.573C490.175 675.413 488.485 679.035 486.843 682.557L486.842 682.558C486.294 683.733 485.752 684.896 485.328 686.053C478.949 702.058 472.797 718.139 466.638 734.234L466.635 734.243L466.075 735.707C465.646 736.883 465.211 738.058 464.777 739.235C461.874 747.09 458.956 754.985 457.542 763.253C460.795 763 464.022 762.267 466.808 760.467C478.435 753.387 488.448 744.04 498.062 734.467C500.457 732.139 501.341 728.943 502.214 725.788C502.546 724.587 502.877 723.392 503.288 722.253C509.99 701.176 517.525 680.384 525.06 659.595L525.061 659.59C528.679 649.608 532.297 639.626 535.822 629.613C537.408 625.32 539.342 620.893 543.102 618.053C547.648 614.12 554.235 613.587 559.848 615.133C563.435 616.08 565.822 619.867 564.902 623.533C564.04 626.951 562.659 630.185 561.276 633.424L561.275 633.425C560.689 634.797 560.103 636.171 559.555 637.56C548.288 666.547 537.248 695.627 526.995 724.987C526.206 727.508 525.374 730.025 524.54 732.546C521.215 742.598 517.872 752.706 517.222 763.333L517.541 763.302H517.541C520.122 763.047 522.783 762.784 525.075 761.427C536.035 755.52 545.382 747.107 554.142 738.36C556.727 736.155 557.226 732.932 557.722 729.727C557.955 728.223 558.188 726.722 558.635 725.333C564.488 704.013 579.235 685.507 598.195 674.293C610.608 666.92 624.622 660.707 639.355 661.413C639.734 661.752 640.112 662.092 640.491 662.433L640.571 662.504C641.7 663.518 642.834 664.536 643.982 665.547C648.848 663.947 654.288 663.333 659.088 665.52C662.528 666.853 666.768 669.987 664.822 674.187C662.292 680.825 659.715 687.449 657.138 694.075C651.972 707.356 646.803 720.643 642.008 734.067C638.635 743.28 635.555 752.68 634.248 762.453C639.852 761.366 644.492 758.02 649.031 754.746C649.558 754.366 650.083 753.987 650.608 753.613C657.363 748.633 663.5 742.896 669.625 737.17L669.625 737.17C670.863 736.013 672.1 734.856 673.342 733.707C675.761 731.756 676.42 728.802 677.071 725.88C677.345 724.649 677.618 723.423 678.022 722.28C679.353 716.91 681.223 711.703 683.092 706.499L683.092 706.498L683.093 706.496C685.191 700.652 687.289 694.811 688.622 688.747C679.315 688.08 673.888 677.293 676.528 669.053C680.813 666.11 685.896 665.163 690.981 664.216C694.441 663.572 697.903 662.927 701.115 661.653C702.931 657.333 704.533 652.913 706.135 648.492L706.135 648.49C708.884 640.904 711.634 633.314 715.475 626.213C717.955 621.493 722.995 617.2 728.675 618.84C733.675 620.507 738.515 623.52 741.542 627.92C743.719 630.888 742.112 634.456 740.75 637.478C740.62 637.769 740.491 638.054 740.368 638.333C737.95 643.189 735.71 648.121 733.47 653.056L733.469 653.058C732.363 655.495 731.256 657.932 730.128 660.36C732.365 660.464 734.648 660.374 736.937 660.283C742.277 660.071 747.654 659.858 752.582 662.107C757.862 664.6 760.582 670.893 758.782 676.453C751.337 679.879 743.258 681.02 735.182 682.161C730.212 682.863 725.242 683.566 720.422 684.8C719.253 685.703 718.607 687.064 717.982 688.38L717.979 688.385C717.913 688.524 717.848 688.663 717.782 688.8C711.022 703.787 705.155 719.16 699.942 734.76C699.802 735.208 699.66 735.656 699.518 736.104C699.374 736.562 699.228 737.02 699.082 737.478C696.719 744.913 694.325 752.443 694.515 760.333C695.118 760.263 695.734 760.22 696.355 760.178C698.425 760.035 700.537 759.89 702.302 758.68C714.542 750.787 724.848 740.307 734.515 729.507C736.568 727.36 737.702 724.56 738.422 721.72C741.822 707.427 750.062 694.8 759.448 683.733C769.008 673.4 780.955 663.653 795.448 662.08C805.955 660.827 816.062 667.387 821.195 676.28C825.608 684.227 827.355 693.373 828.755 702.267C830.595 725.093 820.062 748.427 802.022 762.467C790.568 771.133 776.488 777.733 761.795 776.52C753.782 776.067 747.355 770.013 743.275 763.533C739.515 757.867 737.848 751.187 736.675 744.573C729.262 754.08 720.875 762.893 711.288 770.24C706.062 774.053 700.448 777.827 693.982 779C688.342 780.12 682.955 776.747 679.448 772.613C674.848 767.08 673.622 759.747 672.768 752.84C664.022 764.48 651.942 773.76 638.368 779.053C631.102 781.693 621.168 783.267 615.675 776.44C611.26 769.716 612.731 761.579 614.105 753.985C614.365 752.544 614.622 751.122 614.835 749.733C613.401 751.071 611.974 752.428 610.544 753.787C602.052 761.858 593.453 770.032 582.715 774.973C577.395 777.387 570.488 778.627 565.675 774.52C560.722 770.915 559.031 765.097 557.392 759.46L557.391 759.458C556.988 758.069 556.587 756.691 556.142 755.36C547.128 766.387 535.795 776.187 521.942 780.36C515.928 782.133 508.488 782.493 503.742 777.68C497.608 771.853 497.235 762.813 497.168 754.907C495.789 756.365 494.438 757.862 493.085 759.36L493.084 759.362C488.302 764.659 483.497 769.982 477.355 773.733C470.088 778.267 461.542 782.2 452.768 780.907C446.035 779.8 441.048 773.973 439.395 767.587C438.176 762.895 438.412 758.071 438.646 753.269L438.646 753.268C438.72 751.766 438.793 750.266 438.822 748.773C437.613 750.108 436.411 751.455 435.205 752.805C427.393 761.558 419.483 770.418 409.422 776.587C404.795 779.52 398.435 780.56 393.675 777.387C382.675 770.373 378.102 756.32 380.168 743.8C372.382 753.64 362.222 761.28 351.888 768.24C341.142 775.12 328.382 781.467 315.262 778.653C303.822 774.907 295.382 764.733 291.462 753.613C288.932 755.482 286.778 757.749 284.622 760.019C282.778 761.961 280.932 763.904 278.848 765.6C270.182 773.08 259.995 779.707 248.435 781.253C242.688 782.107 236.902 778.893 234.075 773.947C230.558 768.453 230.458 761.79 230.363 755.468C230.357 755.008 230.35 754.549 230.342 754.093C220.715 766.213 207.782 776.24 192.728 780.44C186.275 782.293 177.662 782.027 173.822 775.613C170.461 769.75 171.173 763.037 171.868 756.477C172.102 754.265 172.334 752.071 172.408 749.933C170.526 751.664 168.664 753.443 166.797 755.228C158.49 763.166 150.071 771.212 139.262 775.533C134.208 777.6 127.742 778 123.622 773.813C114.915 765.573 113.382 752.613 113.688 741.227C98.5949 756.107 78.3549 765.267 57.6349 769.027C46.9949 770.427 35.1549 771.093 25.7816 764.933C8.6349 754.413 -0.645097 733.973 0.034903 714.2C0.754903 697.747 6.16823 681.493 15.5949 667.973C29.9282 646.947 51.9416 632.24 75.3549 623.027ZM180.688 686.587C158.395 698.267 139.688 717.987 131.942 742.213C130.448 746.333 129.995 750.72 130.075 755.093C133.622 755.027 137.288 754.733 140.315 752.693C151.989 745.819 161.327 736.076 170.638 726.362C174.258 722.585 177.874 718.812 181.622 715.213C184.485 712.853 185.518 709.298 186.511 705.883C186.577 705.657 186.642 705.431 186.708 705.206C186.755 705.048 186.801 704.89 186.848 704.733C187.91 701.03 189.275 697.431 190.639 693.831C192.153 689.838 193.667 685.844 194.768 681.707C189.928 682.84 185.115 684.253 180.688 686.587ZM627.008 684.92C612.542 691.533 599.755 701.72 589.848 714.147C580.622 725.987 572.355 739.933 571.822 755.307C580.051 756.194 586.775 750.728 592.779 745.847L593.182 745.52C604.082 736.387 613.839 726.023 623.574 715.682L624.768 714.413C626.952 712.115 627.883 709.088 628.799 706.109C629.052 705.286 629.304 704.466 629.582 703.667C630.812 699.585 632.33 695.609 633.847 691.634L633.848 691.632C635.026 688.544 636.205 685.456 637.248 682.32C633.715 682.627 630.222 683.387 627.008 684.92ZM794.168 686.427C779.688 695.467 769.102 709.72 762.128 725.12C757.488 735.96 753.595 747.507 753.968 759.467C758.902 759.533 763.928 758.947 768.408 756.747C782.568 750.04 793.982 738.56 802.662 725.693C809.142 715.84 814.422 704.827 815.928 693.053C815.947 692.684 815.972 692.296 815.998 691.894L815.998 691.891C816.236 688.215 816.546 683.425 812.448 682.067C806.048 680.2 799.595 683.267 794.168 686.427ZM860.784 664.202C860.394 664.543 860.011 664.879 859.635 665.2C850.675 673.773 840.982 681.667 829.928 687.387L829.95 687.483C831.384 693.75 832.939 700.544 837.582 705.293C842.065 707.209 846.339 704.887 850.379 702.692C851.542 702.061 852.685 701.44 853.808 700.933C850.396 719.312 843.652 736.805 836.935 754.228C835.411 758.179 833.89 762.126 832.408 766.08C832.311 766.39 832.209 766.706 832.105 767.026C831.152 769.966 830.08 773.27 832.088 776C835.368 780.2 841.595 781.587 846.528 779.867C850.394 777.797 852.101 773.722 853.732 769.828C854.087 768.981 854.439 768.141 854.808 767.333C862.488 748.64 873.488 731.48 886.048 715.707C893.822 705.813 902.902 696.693 913.715 690.147C917.858 687.479 922.631 686.416 927.389 685.355C929.124 684.969 930.856 684.583 932.555 684.12C931.448 677.787 926.835 672.547 921.328 669.52C913.222 667.56 905.675 672.493 899.542 677.187C888.034 686.089 880.52 698.671 873.161 710.991C872.497 712.104 871.833 713.214 871.168 714.32C872.352 710.407 873.704 706.533 875.056 702.657C877.999 694.223 880.944 685.781 882.168 676.92C883.648 669.587 878.942 662.227 872.422 659.147C867.845 658.014 864.067 661.325 860.784 664.202Z" fill="url(#paint1_linear_1_71)"/>
<path fill-rule="evenodd" clip-rule="evenodd" d="M799.813 175.401C799.189 175.943 798.565 176.485 797.942 177.027C797.704 177.248 797.463 177.472 797.22 177.697C793.212 181.412 788.657 185.636 788.795 191.507C788.768 245.707 788.768 299.92 788.835 354.12C788.931 360.388 788.887 366.668 788.844 372.948C788.772 383.273 788.701 393.6 789.248 403.88C789.43 404.001 789.613 404.122 789.795 404.243C792.858 406.275 795.97 408.34 799.355 409.787C805.995 410.16 812.675 409.8 819.315 409.44C822.968 409.413 825.768 405.813 825.542 402.28C825.537 376.111 825.512 349.942 825.487 323.773C825.432 266.515 825.377 209.258 825.542 152C817.327 160.19 808.566 167.798 799.813 175.401ZM112.571 199.2H112.569C77.6541 199.167 42.7378 199.134 7.82153 199.253C7.86042 205.911 7.93107 212.569 8.00172 219.226L8.00172 219.227C8.05219 223.982 8.10265 228.738 8.14154 233.493C44.9871 233.288 81.8327 233.278 118.678 233.268H118.684C151.276 233.259 183.869 233.251 216.462 233.107C217.365 233.035 218.32 233.03 219.291 233.024C222.651 233.005 226.201 232.985 228.435 230.213C232.457 225.582 236.227 220.74 239.997 215.898L239.997 215.898L239.997 215.898L239.997 215.898L239.997 215.898C244.486 210.132 248.974 204.367 253.888 198.96C206.788 199.289 159.683 199.245 112.577 199.2H112.576H112.575H112.575H112.574H112.573H112.573H112.572H112.571ZM258.515 264C272.195 251.573 290.302 244.787 308.488 242.733C313.488 241.52 316.328 247.333 315.622 251.533C315.547 252.481 315.478 253.433 315.408 254.389C314.831 262.308 314.239 270.435 310.515 277.573C308.068 278.045 305.583 278.395 303.096 278.746C296.72 279.646 290.328 280.549 284.515 283.493C265.755 291.68 253.328 309.627 246.475 328.307C244.319 333.459 244.288 339.08 244.258 344.588C244.256 345.109 244.253 345.628 244.248 346.147C244.302 366.32 244.328 386.493 244.315 406.68C235.835 393.52 222.142 384.493 207.622 379.24C207.313 369.449 207.339 359.652 207.365 349.855C207.393 339.332 207.422 328.809 207.035 318.293C207.001 309.059 206.993 299.822 206.986 290.585V290.585V290.584V290.584V290.584V290.583V290.583V290.583C206.976 277.987 206.965 265.392 206.888 252.8C206.89 252.633 206.892 252.465 206.893 252.296C206.906 250.451 206.92 248.498 208.288 247.093C211.231 246.218 214.315 246.255 217.379 246.292C218.424 246.305 219.467 246.317 220.502 246.293C223.093 246.354 225.686 246.252 228.279 246.15C231.93 246.006 235.581 245.861 239.222 246.173C242.288 246.613 243.848 249.853 243.915 252.667C244.18 256.773 244.188 260.887 244.196 265V265.001C244.205 269.167 244.213 273.334 244.488 277.493C247.392 275.336 249.857 272.716 252.324 270.094L252.325 270.094C254.31 267.984 256.297 265.873 258.515 264ZM376.608 244.613C362.075 245.36 346.182 246.493 334.542 256.227C324.275 264.573 321.728 278.84 322.528 291.36C322.982 297.667 329.542 300.787 335.128 301.253C342.195 301.813 350.008 301.96 356.222 298.027C359.075 296.109 359.965 292.955 360.855 289.802C361.728 286.708 362.601 283.615 365.328 281.693C370.178 278.769 376.008 278.406 381.566 278.06L381.568 278.059L381.851 278.042L382.324 278.012C382.593 277.995 382.861 277.978 383.128 277.96C384.645 277.945 386.166 277.916 387.69 277.887L387.691 277.887C395.679 277.735 403.737 277.581 411.542 279.44C416.622 280.56 420.288 285.293 420.875 290.36C421.475 295.427 422.115 300.973 419.782 305.72C418.875 307.245 417.125 307.265 415.476 307.284C414.919 307.29 414.373 307.296 413.875 307.36C412.026 307.353 410.177 307.345 408.328 307.336H408.324H408.321H408.317H408.313H408.309H408.305H408.305C391.448 307.26 374.569 307.183 357.755 308.48L357.174 308.552C347.53 309.743 336.993 311.045 329.582 317.947C322.902 324.027 321.475 333.627 321.462 342.213C321.448 343.756 321.426 345.308 321.405 346.868L321.404 346.875L321.404 346.883L321.404 346.89L321.404 346.898L321.404 346.906L321.404 346.914C321.173 363.51 320.931 380.945 329.808 395.533C336.542 407.04 350.355 412.12 363.168 412.053C383.862 412.973 403.888 405.04 420.955 393.867C421.094 395.249 421.133 396.663 421.171 398.083C421.261 401.417 421.352 404.782 422.755 407.84C424.412 411.035 428.211 411.053 431.428 411.069C431.809 411.071 432.181 411.073 432.542 411.08C435.624 410.976 438.712 410.977 441.8 410.978C445.843 410.98 449.885 410.981 453.915 410.747C457.115 410.693 460.422 408.293 459.835 404.76C459.87 381.069 459.788 357.367 459.705 333.664C459.663 321.816 459.622 309.967 459.595 298.12C459.742 286.2 457.888 273.667 450.915 263.68C444.235 254.093 433.262 248.253 421.888 246.36C408.414 244.212 394.744 244.386 381.143 244.559L381.139 244.559C379.628 244.578 378.117 244.597 376.608 244.613ZM358.488 346.067C358.528 342.453 361.542 339.227 365.195 339.12C381.875 338.867 398.582 338.733 415.275 338.867C418.835 338.56 421.995 341.4 422.422 344.88C423.168 350.56 422.062 356.413 419.848 361.653C416.968 368.253 410.928 372.827 404.528 375.707C395.608 379.68 385.448 381.067 375.848 379.253C369.248 378.013 362.875 373.827 360.528 367.32C358.022 360.573 357.995 353.16 358.488 346.067ZM458.702 244.653C462.557 244.695 466.414 244.667 470.272 244.64C475.021 244.605 479.77 244.571 484.515 244.667C484.758 244.682 485.003 244.696 485.25 244.71C488.748 244.913 492.534 245.133 495.262 247.587C498.318 250.251 499.838 254.082 501.314 257.803L501.315 257.804C501.545 258.385 501.774 258.963 502.008 259.533C512.155 287.293 522.822 314.867 533.515 342.427C534.198 344.046 534.827 345.693 535.457 347.341C536.943 351.227 538.431 355.118 540.622 358.667C540.813 358.71 541.062 358.767 541.334 358.829L541.908 358.96L542.682 359.136L542.887 359.183L543.195 359.253C546.439 355.595 548.105 350.995 549.755 346.439C550.282 344.984 550.807 343.534 551.382 342.12C560.67 318.03 569.7 293.83 578.729 269.633L578.733 269.623L578.744 269.594C580.169 265.774 581.595 261.953 583.022 258.133C584.982 252.973 587.768 246.573 593.982 245.733C601.248 244.355 608.64 244.483 616.029 244.611C619.431 244.669 622.833 244.728 626.222 244.64C620.939 257.077 616.254 269.756 611.568 282.435C608.779 289.982 605.99 297.529 603.075 305.027C597.833 319.228 592.436 333.371 587.038 347.514L587.037 347.518L587.036 347.52L587.035 347.522L587.035 347.524L587.034 347.526L587.033 347.528C581.846 361.12 576.658 374.713 571.608 388.36C570.56 390.781 569.698 393.282 568.835 395.784L568.834 395.786C567.502 399.648 566.17 403.512 564.155 407.08C562.675 410.15 559.053 410.348 556.014 410.514L555.768 410.527C555.665 410.533 555.563 410.539 555.462 410.545C555.377 410.55 555.292 410.555 555.208 410.56C549.897 410.616 544.59 410.557 539.282 410.498C535.743 410.458 532.203 410.419 528.662 410.413C529.675 404.507 529.075 398.16 525.342 393.267C523.545 390.449 520.497 389.315 517.497 388.2L517.496 388.2C516.423 387.801 515.356 387.404 514.355 386.933C508.275 373.209 503.032 359.131 497.788 345.052C494.764 336.932 491.74 328.812 488.555 320.76C484.882 311.492 481.342 302.17 477.803 292.848C471.668 276.69 465.533 260.532 458.702 244.653ZM668.368 245.747C655.235 246.907 641.595 252.307 634.115 263.707C626.942 275.12 625.608 289.04 625.702 302.227C625.769 309.737 625.741 317.249 625.713 324.762C625.664 338.149 625.615 351.537 626.102 364.92C626.502 377.16 630.928 390.013 640.608 398C651.048 406.413 664.768 408.787 677.782 409.72C694.742 410.573 711.795 411.04 728.715 409.413C740.142 408.107 752.182 404.04 759.528 394.707C766.422 386.053 767.515 374.427 767.262 363.773C767.235 358.493 762.968 354 757.742 353.56C749.902 352.667 741.008 352.267 734.328 357.2C731.546 359.338 730.722 362.596 729.896 365.863C729.115 368.952 728.331 372.049 725.888 374.213C722.56 377.019 718.098 377.312 713.9 377.589C713.614 377.608 713.328 377.626 713.044 377.646C712.822 377.661 712.601 377.677 712.382 377.693L711.603 377.712C700.166 377.987 688.656 378.263 677.275 376.933C672.168 376.44 666.808 373.853 665.008 368.747C663.32 363.847 663.485 358.61 663.647 353.445V353.442V353.44V353.438V353.435C663.696 351.871 663.745 350.313 663.742 348.773C663.582 344.893 667.888 343.067 671.195 343.24C685.863 343.2 700.53 343.187 715.198 343.173C729.864 343.16 744.529 343.147 759.195 343.107C761.655 343.171 764.004 342.352 766.3 341.551L766.542 341.467C767.222 337.773 767.542 334.013 767.435 330.267C767.328 323.586 767.352 316.906 767.375 310.226C767.398 303.546 767.422 296.866 767.315 290.187C766.955 278.853 764.288 266.853 756.435 258.253C749.742 250.573 739.555 247.04 729.675 245.933C709.302 244.053 688.755 244.12 668.368 245.747ZM664.355 290.133C664.848 284.747 669.062 280.173 674.302 279.013C680.6 277.673 687.058 277.664 693.49 277.655C695.378 277.652 697.263 277.65 699.142 277.613C700.822 277.663 702.513 277.674 704.209 277.686H704.21C710.225 277.725 716.292 277.765 722.075 279.533C727.128 281.107 729.715 286.52 729.995 291.507C730.382 297.733 730.622 304.027 729.995 310.253C729.662 313.48 726.595 315.827 723.408 315.64C713.57 315.806 703.731 315.766 693.892 315.725C687.184 315.697 680.476 315.669 673.768 315.707C673.526 315.7 673.276 315.695 673.019 315.69C669.71 315.623 665.346 315.535 664.542 311.6C663.155 304.56 663.702 297.24 664.355 290.133ZM95.7415 246.947C101.796 246.255 107.887 246.3 113.977 246.346C117.047 246.369 120.116 246.391 123.182 246.32C123.693 246.363 124.258 246.36 124.841 246.356C126.961 246.344 129.314 246.33 130.182 248.547C131.309 250.905 131.317 253.534 131.324 256.118C131.327 256.836 131.329 257.55 131.355 258.253C131.278 272.721 131.314 287.193 131.35 301.665V301.665V301.665V301.666V301.666C131.413 327.271 131.477 352.877 130.915 378.467C118.848 381.84 106.955 385.893 95.5815 391.187C95.4287 365.504 95.4457 339.821 95.4628 314.139C95.474 297.261 95.4852 280.384 95.4482 263.507C95.4391 262.256 95.415 261.003 95.3908 259.75V259.75V259.75V259.75C95.3085 255.475 95.226 251.195 95.7415 246.947ZM131.302 417.933C120.542 420.267 110.195 424.147 100.142 428.573C99.7056 428.81 99.1868 429.01 98.6563 429.214C96.9149 429.883 95.047 430.602 95.5682 432.84C95.5788 439.27 95.5639 445.702 95.549 452.135V452.138V452.14V452.14V452.141C95.5266 461.794 95.5042 471.45 95.5682 481.107C104.728 472.107 113.982 463.173 123.608 454.667C127.542 451.08 131.368 446.533 131.355 440.907C131.549 435.043 131.461 429.172 131.374 423.305C131.347 421.514 131.32 419.723 131.302 417.933ZM523.542 425.293C533.742 422.133 544.528 421.347 555.155 421.253C587.76 421.103 620.366 421.167 652.97 421.231H652.982H652.984C687.052 421.297 721.118 421.364 755.182 421.187C754.863 422.057 754.542 422.927 754.22 423.798L754.216 423.809C752.978 427.16 751.737 430.518 750.648 433.933C736.304 434.534 721.942 434.415 707.578 434.295H707.576C696.759 434.206 685.941 434.116 675.128 434.333C652.141 434.375 629.151 434.366 606.16 434.358C577.117 434.348 548.074 434.337 519.035 434.427C519.434 433.556 519.798 432.66 520.162 431.764C521.085 429.489 522.011 427.206 523.542 425.293ZM810.947 421.168C808.718 421.185 806.489 421.201 804.261 421.16C803.688 424.68 803.035 428.2 802.368 431.707C809.021 428.773 815.608 425.56 821.555 421.32C818.022 421.116 814.484 421.142 810.947 421.168Z" fill="#03E4FF"/>
<path fill-rule="evenodd" clip-rule="evenodd" d="M799.813 175.401C799.189 175.943 798.565 176.485 797.942 177.027C797.704 177.248 797.463 177.472 797.22 177.697C793.212 181.412 788.657 185.636 788.795 191.507C788.768 245.707 788.768 299.92 788.835 354.12C788.931 360.388 788.887 366.668 788.844 372.948C788.772 383.273 788.701 393.6 789.248 403.88C789.43 404.001 789.613 404.122 789.795 404.243C792.858 406.275 795.97 408.34 799.355 409.787C805.995 410.16 812.675 409.8 819.315 409.44C822.968 409.413 825.768 405.813 825.542 402.28C825.537 376.111 825.512 349.942 825.487 323.773C825.432 266.515 825.377 209.258 825.542 152C817.327 160.19 808.566 167.798 799.813 175.401ZM112.571 199.2H112.569C77.6541 199.167 42.7378 199.134 7.82153 199.253C7.86042 205.911 7.93107 212.569 8.00172 219.226L8.00172 219.227C8.05219 223.982 8.10265 228.738 8.14154 233.493C44.9871 233.288 81.8327 233.278 118.678 233.268H118.684C151.276 233.259 183.869 233.251 216.462 233.107C217.365 233.035 218.32 233.03 219.291 233.024C222.651 233.005 226.201 232.985 228.435 230.213C232.457 225.582 236.227 220.74 239.997 215.898L239.997 215.898L239.997 215.898L239.997 215.898L239.997 215.898C244.486 210.132 248.974 204.367 253.888 198.96C206.788 199.289 159.683 199.245 112.577 199.2H112.576H112.575H112.575H112.574H112.573H112.573H112.572H112.571ZM258.515 264C272.195 251.573 290.302 244.787 308.488 242.733C313.488 241.52 316.328 247.333 315.622 251.533C315.547 252.481 315.478 253.433 315.408 254.389C314.831 262.308 314.239 270.435 310.515 277.573C308.068 278.045 305.583 278.395 303.096 278.746C296.72 279.646 290.328 280.549 284.515 283.493C265.755 291.68 253.328 309.627 246.475 328.307C244.319 333.459 244.288 339.08 244.258 344.588C244.256 345.109 244.253 345.628 244.248 346.147C244.302 366.32 244.328 386.493 244.315 406.68C235.835 393.52 222.142 384.493 207.622 379.24C207.313 369.449 207.339 359.652 207.365 349.855C207.393 339.332 207.422 328.809 207.035 318.293C207.001 309.059 206.993 299.822 206.986 290.585V290.585V290.584V290.584V290.584V290.583V290.583V290.583C206.976 277.987 206.965 265.392 206.888 252.8C206.89 252.633 206.892 252.465 206.893 252.296C206.906 250.451 206.92 248.498 208.288 247.093C211.231 246.218 214.315 246.255 217.379 246.292C218.424 246.305 219.467 246.317 220.502 246.293C223.093 246.354 225.686 246.252 228.279 246.15C231.93 246.006 235.581 245.861 239.222 246.173C242.288 246.613 243.848 249.853 243.915 252.667C244.18 256.773 244.188 260.887 244.196 265V265.001C244.205 269.167 244.213 273.334 244.488 277.493C247.392 275.336 249.857 272.716 252.324 270.094L252.325 270.094C254.31 267.984 256.297 265.873 258.515 264ZM376.608 244.613C362.075 245.36 346.182 246.493 334.542 256.227C324.275 264.573 321.728 278.84 322.528 291.36C322.982 297.667 329.542 300.787 335.128 301.253C342.195 301.813 350.008 301.96 356.222 298.027C359.075 296.109 359.965 292.955 360.855 289.802C361.728 286.708 362.601 283.615 365.328 281.693C370.178 278.769 376.008 278.406 381.566 278.06L381.568 278.059L381.851 278.042L382.324 278.012C382.593 277.995 382.861 277.978 383.128 277.96C384.645 277.945 386.166 277.916 387.69 277.887L387.691 277.887C395.679 277.735 403.737 277.581 411.542 279.44C416.622 280.56 420.288 285.293 420.875 290.36C421.475 295.427 422.115 300.973 419.782 305.72C418.875 307.245 417.125 307.265 415.476 307.284C414.919 307.29 414.373 307.296 413.875 307.36C412.026 307.353 410.177 307.345 408.328 307.336H408.324H408.321H408.317H408.313H408.309H408.305H408.305C391.448 307.26 374.569 307.183 357.755 308.48L357.174 308.552C347.53 309.743 336.993 311.045 329.582 317.947C322.902 324.027 321.475 333.627 321.462 342.213C321.448 343.756 321.426 345.308 321.405 346.868L321.404 346.875L321.404 346.883L321.404 346.89L321.404 346.898L321.404 346.906L321.404 346.914C321.173 363.51 320.931 380.945 329.808 395.533C336.542 407.04 350.355 412.12 363.168 412.053C383.862 412.973 403.888 405.04 420.955 393.867C421.094 395.249 421.133 396.663 421.171 398.083C421.261 401.417 421.352 404.782 422.755 407.84C424.412 411.035 428.211 411.053 431.428 411.069C431.809 411.071 432.181 411.073 432.542 411.08C435.624 410.976 438.712 410.977 441.8 410.978C445.843 410.98 449.885 410.981 453.915 410.747C457.115 410.693 460.422 408.293 459.835 404.76C459.87 381.069 459.788 357.367 459.705 333.664C459.663 321.816 459.622 309.967 459.595 298.12C459.742 286.2 457.888 273.667 450.915 263.68C444.235 254.093 433.262 248.253 421.888 246.36C408.414 244.212 394.744 244.386 381.143 244.559L381.139 244.559C379.628 244.578 378.117 244.597 376.608 244.613ZM358.488 346.067C358.528 342.453 361.542 339.227 365.195 339.12C381.875 338.867 398.582 338.733 415.275 338.867C418.835 338.56 421.995 341.4 422.422 344.88C423.168 350.56 422.062 356.413 419.848 361.653C416.968 368.253 410.928 372.827 404.528 375.707C395.608 379.68 385.448 381.067 375.848 379.253C369.248 378.013 362.875 373.827 360.528 367.32C358.022 360.573 357.995 353.16 358.488 346.067ZM458.702 244.653C462.557 244.695 466.414 244.667 470.272 244.64C475.021 244.605 479.77 244.571 484.515 244.667C484.758 244.682 485.003 244.696 485.25 244.71C488.748 244.913 492.534 245.133 495.262 247.587C498.318 250.251 499.838 254.082 501.314 257.803L501.315 257.804C501.545 258.385 501.774 258.963 502.008 259.533C512.155 287.293 522.822 314.867 533.515 342.427C534.198 344.046 534.827 345.693 535.457 347.341C536.943 351.227 538.431 355.118 540.622 358.667C540.813 358.71 541.062 358.767 541.334 358.829L541.908 358.96L542.682 359.136L542.887 359.183L543.195 359.253C546.439 355.595 548.105 350.995 549.755 346.439C550.282 344.984 550.807 343.534 551.382 342.12C560.67 318.03 569.7 293.83 578.729 269.633L578.733 269.623L578.744 269.594C580.169 265.774 581.595 261.953 583.022 258.133C584.982 252.973 587.768 246.573 593.982 245.733C601.248 244.355 608.64 244.483 616.029 244.611C619.431 244.669 622.833 244.728 626.222 244.64C620.939 257.077 616.254 269.756 611.568 282.435C608.779 289.982 605.99 297.529 603.075 305.027C597.833 319.228 592.436 333.371 587.038 347.514L587.037 347.518L587.036 347.52L587.035 347.522L587.035 347.524L587.034 347.526L587.033 347.528C581.846 361.12 576.658 374.713 571.608 388.36C570.56 390.781 569.698 393.282 568.835 395.784L568.834 395.786C567.502 399.648 566.17 403.512 564.155 407.08C562.675 410.15 559.053 410.348 556.014 410.514L555.768 410.527C555.665 410.533 555.563 410.539 555.462 410.545C555.377 410.55 555.292 410.555 555.208 410.56C549.897 410.616 544.59 410.557 539.282 410.498C535.743 410.458 532.203 410.419 528.662 410.413C529.675 404.507 529.075 398.16 525.342 393.267C523.545 390.449 520.497 389.315 517.497 388.2L517.496 388.2C516.423 387.801 515.356 387.404 514.355 386.933C508.275 373.209 503.032 359.131 497.788 345.052C494.764 336.932 491.74 328.812 488.555 320.76C484.882 311.492 481.342 302.17 477.803 292.848C471.668 276.69 465.533 260.532 458.702 244.653ZM668.368 245.747C655.235 246.907 641.595 252.307 634.115 263.707C626.942 275.12 625.608 289.04 625.702 302.227C625.769 309.737 625.741 317.249 625.713 324.762C625.664 338.149 625.615 351.537 626.102 364.92C626.502 377.16 630.928 390.013 640.608 398C651.048 406.413 664.768 408.787 677.782 409.72C694.742 410.573 711.795 411.04 728.715 409.413C740.142 408.107 752.182 404.04 759.528 394.707C766.422 386.053 767.515 374.427 767.262 363.773C767.235 358.493 762.968 354 757.742 353.56C749.902 352.667 741.008 352.267 734.328 357.2C731.546 359.338 730.722 362.596 729.896 365.863C729.115 368.952 728.331 372.049 725.888 374.213C722.56 377.019 718.098 377.312 713.9 377.589C713.614 377.608 713.328 377.626 713.044 377.646C712.822 377.661 712.601 377.677 712.382 377.693L711.603 377.712C700.166 377.987 688.656 378.263 677.275 376.933C672.168 376.44 666.808 373.853 665.008 368.747C663.32 363.847 663.485 358.61 663.647 353.445V353.442V353.44V353.438V353.435C663.696 351.871 663.745 350.313 663.742 348.773C663.582 344.893 667.888 343.067 671.195 343.24C685.863 343.2 700.53 343.187 715.198 343.173C729.864 343.16 744.529 343.147 759.195 343.107C761.655 343.171 764.004 342.352 766.3 341.551L766.542 341.467C767.222 337.773 767.542 334.013 767.435 330.267C767.328 323.586 767.352 316.906 767.375 310.226C767.398 303.546 767.422 296.866 767.315 290.187C766.955 278.853 764.288 266.853 756.435 258.253C749.742 250.573 739.555 247.04 729.675 245.933C709.302 244.053 688.755 244.12 668.368 245.747ZM664.355 290.133C664.848 284.747 669.062 280.173 674.302 279.013C680.6 277.673 687.058 277.664 693.49 277.655C695.378 277.652 697.263 277.65 699.142 277.613C700.822 277.663 702.513 277.674 704.209 277.686H704.21C710.225 277.725 716.292 277.765 722.075 279.533C727.128 281.107 729.715 286.52 729.995 291.507C730.382 297.733 730.622 304.027 729.995 310.253C729.662 313.48 726.595 315.827 723.408 315.64C713.57 315.806 703.731 315.766 693.892 315.725C687.184 315.697 680.476 315.669 673.768 315.707C673.526 315.7 673.276 315.695 673.019 315.69C669.71 315.623 665.346 315.535 664.542 311.6C663.155 304.56 663.702 297.24 664.355 290.133ZM95.7415 246.947C101.796 246.255 107.887 246.3 113.977 246.346C117.047 246.369 120.116 246.391 123.182 246.32C123.693 246.363 124.258 246.36 124.841 246.356C126.961 246.344 129.314 246.33 130.182 248.547C131.309 250.905 131.317 253.534 131.324 256.118C131.327 256.836 131.329 257.55 131.355 258.253C131.278 272.721 131.314 287.193 131.35 301.665V301.665V301.665V301.666V301.666C131.413 327.271 131.477 352.877 130.915 378.467C118.848 381.84 106.955 385.893 95.5815 391.187C95.4287 365.504 95.4457 339.821 95.4628 314.139C95.474 297.261 95.4852 280.384 95.4482 263.507C95.4391 262.256 95.415 261.003 95.3908 259.75V259.75V259.75V259.75C95.3085 255.475 95.226 251.195 95.7415 246.947ZM131.302 417.933C120.542 420.267 110.195 424.147 100.142 428.573C99.7056 428.81 99.1868 429.01 98.6563 429.214C96.9149 429.883 95.047 430.602 95.5682 432.84C95.5788 439.27 95.5639 445.702 95.549 452.135V452.138V452.14V452.14V452.141C95.5266 461.794 95.5042 471.45 95.5682 481.107C104.728 472.107 113.982 463.173 123.608 454.667C127.542 451.08 131.368 446.533 131.355 440.907C131.549 435.043 131.461 429.172 131.374 423.305C131.347 421.514 131.32 419.723 131.302 417.933ZM523.542 425.293C533.742 422.133 544.528 421.347 555.155 421.253C587.76 421.103 620.366 421.167 652.97 421.231H652.982H652.984C687.052 421.297 721.118 421.364 755.182 421.187C754.863 422.057 754.542 422.927 754.22 423.798L754.216 423.809C752.978 427.16 751.737 430.518 750.648 433.933C736.304 434.534 721.942 434.415 707.578 434.295H707.576C696.759 434.206 685.941 434.116 675.128 434.333C652.141 434.375 629.151 434.366 606.16 434.358C577.117 434.348 548.074 434.337 519.035 434.427C519.434 433.556 519.798 432.66 520.162 431.764C521.085 429.489 522.011 427.206 523.542 425.293ZM810.947 421.168C808.718 421.185 806.489 421.201 804.261 421.16C803.688 424.68 803.035 428.2 802.368 431.707C809.021 428.773 815.608 425.56 821.555 421.32C818.022 421.116 814.484 421.142 810.947 421.168Z" fill="url(#paint2_linear_1_71)"/>
</g>
<defs>
<radialGradient id="paint0_radial_1_71" cx="0" cy="0" r="1" gradientUnits="userSpaceOnUse" gradientTransform="translate(466.5 466.5) rotate(90) scale(466.5)">
<stop offset="0.65" stop-color="#00E4FF" stop-opacity="0.23"/>
<stop offset="1" stop-color="#181534" stop-opacity="0"/>
</radialGradient>
<linearGradient id="paint1_linear_1_71" x1="-107" y1="813.5" x2="923.569" y2="1035.7" gradientUnits="userSpaceOnUse">
<stop stop-color="#FF2E00"/>
<stop offset="0.5" stop-color="#FF0066"/>
<stop offset="1" stop-color="#8800FF"/>
</linearGradient>
<linearGradient id="paint2_linear_1_71" x1="451.5" y1="521.5" x2="448.5" y2="123" gradientUnits="userSpaceOnUse">
<stop stop-color="#00FFD1"/>
<stop offset="1" stop-color="#0047FF"/>
</linearGradient>
<clipPath id="clip0_1_71">
<rect width="933" height="933" fill="white"/>
</clipPath>
</defs>
</svg>
